<svg viewBox="0 0 64 63" fill="none" xmlns="http://www.w3.org/2000/svg">
<path d="M31.9832 63C49.3643 63 63.4544 48.9264 63.4544 31.5658C63.4544 14.2052 49.3643 0.131592 31.9832 0.131592C14.6022 0.131592 0.512115 14.2052 0.512115 31.5658C0.512115 48.9264 14.6022 63 31.9832 63Z" fill="#010201"/>
<path d="M47.3038 18.7965C47.2789 18.6747 47.2228 18.5614 47.1412 18.4676C47.0595 18.3737 46.9549 18.3026 46.8376 18.261C46.3957 18.1754 45.939 18.2076 45.5135 18.3542C45.5135 18.3542 16.1031 28.916 14.42 30.0849C14.061 30.3364 13.9538 30.4854 13.8792 30.653C13.5901 31.4866 14.4946 31.8546 14.4946 31.8546L22.0756 34.3227C22.2012 34.3533 22.3324 34.3533 22.458 34.3227C24.183 33.233 39.8067 23.3789 40.7112 23.0483C40.8511 23.0064 40.9583 23.0483 40.9303 23.1507C40.5667 24.4174 26.9945 36.4649 26.9945 36.4649C26.9614 36.5082 26.9333 36.5551 26.9106 36.6046L26.2065 44.1162C26.2065 44.1162 25.9081 46.4167 28.2113 44.1162C29.8385 42.4909 31.4098 41.1311 32.1977 40.4745C34.804 42.2721 37.6107 44.2606 38.8183 45.2991C39.0224 45.495 39.2637 45.6483 39.5279 45.7498C39.7921 45.8514 40.0739 45.8992 40.3569 45.8905C41.5038 45.8486 41.8255 44.5866 41.8255 44.5866C41.8255 44.5866 47.1873 23.039 47.3645 20.1517C47.3645 19.8723 47.4064 19.686 47.4064 19.4951C47.4092 19.2583 47.3746 19.0226 47.3038 18.7965Z" fill="white"/>
</svg>
