<svg viewBox="0 0 64 64" fill="none" xmlns="http://www.w3.org/2000/svg">
<path d="M31.9832 63.619C49.3643 63.619 63.4544 49.5454 63.4544 32.1848C63.4544 14.8242 49.3643 0.75061 31.9832 0.75061C14.6022 0.75061 0.512115 14.8242 0.512115 32.1848C0.512115 49.5454 14.6022 63.619 31.9832 63.619Z" fill="#010201"/>
<path d="M49.621 21.7952C49.621 21.6089 49.621 21.6043 49.4252 21.6043C48.966 21.6006 48.5077 21.5617 48.0545 21.4879C46.4086 21.2364 41.0609 18.4422 40.161 13.8645C40.0532 13.2999 39.9816 12.7291 39.9466 12.1554C39.9466 11.9365 39.9466 11.9365 39.7274 11.9319H33.312C32.8877 11.9319 32.9483 11.8806 32.9483 12.3044V39.4636C32.9554 39.8003 32.932 40.137 32.8784 40.4695C32.7503 41.2509 32.4652 41.9983 32.0405 42.6668C31.6157 43.3354 31.06 43.9112 30.4067 44.3597C29.7534 44.8082 29.016 45.1201 28.2389 45.2767C27.4618 45.4333 26.6611 45.4312 25.8848 45.2708C25.413 45.1579 24.9526 45.002 24.5094 44.8051L24.3975 44.7073C24.2482 44.5844 24.0925 44.4694 23.9313 44.3626C21.9964 43.0261 21.0779 41.168 21.3576 38.8442C21.6374 36.5204 22.9988 34.8858 25.2321 34.0615C25.898 33.8161 26.6077 33.7115 27.3162 33.7542C27.7763 33.7706 28.233 33.8394 28.6776 33.9591C28.8314 34.0057 28.9154 33.9591 28.9247 33.7868C28.9247 33.7309 28.9247 33.675 28.9247 33.6145C28.9247 31.9892 28.8641 28.4406 28.8548 28.4313C28.8548 27.9656 28.8548 27.4999 28.8548 27.0343C28.8548 26.8992 28.7895 26.8759 28.6729 26.862C26.9404 26.6443 25.1816 26.7826 23.5045 27.2685C21.8274 27.7544 20.2675 28.5775 18.9205 29.6875C17.5735 30.7974 16.4678 32.1706 15.6715 33.7228C14.8751 35.275 14.4048 36.9735 14.2895 38.7138C14.2475 39.3779 14.2569 40.0443 14.3174 40.707C14.4677 42.4555 14.979 44.1539 15.8192 45.6952C16.6594 47.2365 17.8101 48.5873 19.199 49.6622C19.4001 49.8456 19.6242 50.0021 19.8657 50.1279L20.1827 50.4073C20.5191 50.6588 20.8781 50.8786 21.2551 51.064C23.8434 52.3666 26.7942 52.7648 29.6358 52.195C32.4774 51.6251 35.0457 50.1201 36.93 47.9205C38.9499 45.5967 40.0493 42.6154 40.0212 39.5381C40.0445 35.0302 40.0212 30.5223 40.0212 26.033C40.0212 25.9259 39.9559 25.7722 40.0771 25.7163C40.1983 25.6605 40.2636 25.8002 40.3475 25.8561C42.0111 26.9532 43.8589 27.742 45.8025 28.1845C46.9393 28.4542 48.103 28.5948 49.2714 28.6036C49.6443 28.6036 49.691 28.6036 49.691 28.2171C49.705 26.5965 49.621 22.219 49.621 21.7952Z" fill="white"/>
</svg>
